<?xml version="1.0" encoding="UTF-8"?>
<svg version="1.1" xmlns="http://www.w3.org/2000/svg" width="200" height="200">
<path d="M0 0 C6.38635944 3.88675209 11.98811894 10.21014327 14.16015625 17.421875 C16.03677528 26.0637845 15.44274722 32.91644932 13.21875 41.49609375 C12.6511129 44.42764062 12.38318637 45.88090246 13.625 48.5625 C18.60396852 53.03447173 25.43875348 55.29336449 31.625 57.5625 C35.14573623 53.4755305 35.14573623 53.4755305 38.125 49 C39.54973403 46.6848072 41.10421367 44.99565093 43.0546875 43.12109375 C51.94762025 34.29452617 60.31500311 24.43808164 67.140625 13.92578125 C68.625 12.5625 68.625 12.5625 71.171875 12.23046875 C73.625 12.5625 73.625 12.5625 75.625 14.5625 C75.39033586 19.40328587 73.9805292 21.86419139 70.8125 25.4375 C66.82537206 30.11581544 62.97941488 34.86286632 59.25 39.75 C58.73848389 40.40274902 58.22696777 41.05549805 57.69995117 41.72802734 C54.32366512 46.17342402 52.44044771 50.28879147 50.625 55.5625 C48.625 58.5625 48.625 58.5625 46.38671875 59.29296875 C42.2620074 61.18905247 40.12485662 64.29517556 37.4375 67.875 C36.89867187 68.58978516 36.35984375 69.30457031 35.8046875 70.04101562 C31.91805528 75.49296231 30.38500163 79.99298608 29.89453125 86.7265625 C29.23528861 93.6629416 24.68688571 99.14665239 20.625 104.5625 C23.91025795 110.23983639 26.90634921 115.29563213 32.125 119.375 C34.140625 121 34.140625 121 35.625 122.5625 C35.875 125.875 35.875 125.875 34.625 128.5625 C32.546875 129.73046875 32.546875 129.73046875 30.625 130.5625 C30.90287354 131.18705078 31.18074707 131.81160156 31.46704102 132.45507812 C32.7267866 135.31604267 33.95720146 138.1887566 35.1875 141.0625 C35.62513672 142.04476562 36.06277344 143.02703125 36.51367188 144.0390625 C39.06446496 150.06455798 40.55848328 154.18685621 38.625 160.5625 C34.89491197 165.05120551 31.12365999 167.00094575 25.83984375 169.078125 C25.10173965 169.37942322 24.36363556 169.68072144 23.60316467 169.9911499 C21.26089805 170.94352168 18.91188848 171.87785669 16.5625 172.8125 C14.9806718 173.45462668 13.39928653 174.09784562 11.81835938 174.7421875 C3.11293391 178.26818218 -3.94248396 180.75308258 -13.375 180.8125 C-14.55642578 180.8434375 -14.55642578 180.8434375 -15.76171875 180.875 C-27.66812372 180.95169182 -38.42118137 176.66800584 -49.3125 172.25 C-50.50423828 171.78916016 -51.69597656 171.32832031 -52.92382812 170.85351562 C-64.33069596 166.24849711 -64.33069596 166.24849711 -67.375 160.5625 C-68.55187096 153.31545254 -65.74719185 147.63490298 -62.875 141.0625 C-62.44574219 140.04929688 -62.01648437 139.03609375 -61.57421875 137.9921875 C-60.52041735 135.50989976 -59.4538759 133.03396749 -58.375 130.5625 C-59.179375 130.15 -59.98375 129.7375 -60.8125 129.3125 C-63.375 127.5625 -63.375 127.5625 -64.47265625 125.66015625 C-64.375 123.5625 -64.375 123.5625 -62.49609375 121.37109375 C-61.61050781 120.58863281 -60.72492187 119.80617188 -59.8125 119 C-54.84078426 114.26670222 -50.46111915 109.22530913 -48.375 102.5625 C-49.01896602 100.50191177 -49.01896602 100.50191177 -50.375 98.5625 C-51.23839758 96.73349578 -52.09201471 94.8998531 -52.9375 93.0625 C-53.37191406 92.1240625 -53.80632813 91.185625 -54.25390625 90.21875 C-56.68445889 84.45994933 -56.69290073 78.88546797 -56.99609375 72.6796875 C-57.06181428 69.46460802 -57.06181428 69.46460802 -59.375 67.5625 C-59.78515625 65.1171875 -59.78515625 65.1171875 -59.375 62.5625 C-57.43359375 61.0078125 -57.43359375 61.0078125 -54.8125 59.6875 C-47.68180207 55.7484459 -42.43666007 51.27165004 -39.375 43.5625 C-39.26563642 40.80036858 -39.28249114 38.24160248 -39.4375 35.5 C-39.73443759 24.16238288 -37.23833473 13.16022363 -29.375 4.5625 C-21.23918727 -1.85969752 -9.83094607 -4.31698231 0 0 Z " fill="#F6E8E2" transform="translate(95.375,6.4375)"/>
<path d="M0 0 C4.79327222 2.33760567 9.43110848 4.96768894 14.1015625 7.5390625 C16.75669123 9.1500332 16.75669123 9.1500332 19 9 C17.68856394 12.3964381 16.22338202 15.63602136 14.5625 18.875 C13.70732144 20.58282701 12.85309342 22.29113047 12 24 C11.67257813 24.64582031 11.34515625 25.29164063 11.0078125 25.95703125 C9.04594734 30.09563251 8.72167031 33.45394845 9 38 C9.53367187 38.17015625 10.06734375 38.3403125 10.6171875 38.515625 C14.85017632 39.89244489 18.92522427 41.39281038 23 43.1875 C33.09545218 47.18554605 42.99708677 44.16855286 53 41 C53.99 40.01 53.99 40.01 55 39 C54.48778593 29.95088473 52.70141991 19.83569986 48 12 C48.66 12 49.32 12 50 12 C50.33 11.01 50.66 10.02 51 9 C52.051875 8.938125 53.10375 8.87625 54.1875 8.8125 C58.66884605 7.85745904 59.96025526 6.29305681 63 3 C63.99 3 64.98 3 66 3 C67.53515625 4.828125 67.53515625 4.828125 69.0625 7.25 C69.56910156 8.03890625 70.07570313 8.8278125 70.59765625 9.640625 C72 12 72 12 73.0546875 14.234375 C73.87996495 16.19116505 73.87996495 16.19116505 76.0625 17 C78 18 78 18 78.75 20.125 C78.8325 20.74375 78.915 21.3625 79 22 C75.42242916 24.29280783 71.96009187 25.88709909 67.9375 27.25 C66.91527344 27.60578125 65.89304687 27.9615625 64.83984375 28.328125 C62.02094919 28.99504366 60.67006333 28.99887261 58 28 C58 28.99 58 29.98 58 31 C58.89203125 30.69964844 59.7840625 30.39929688 60.703125 30.08984375 C61.87359375 29.70957031 63.0440625 29.32929688 64.25 28.9375 C65.41015625 28.55464844 66.5703125 28.17179687 67.765625 27.77734375 C70.94597598 27.01298403 72.06862221 26.78736103 75 28 C76.18847656 29.74658203 76.18847656 29.74658203 77.140625 32.0078125 C77.48867187 32.83023438 77.83671875 33.65265625 78.1953125 34.5 C78.54335937 35.36625 78.89140625 36.2325 79.25 37.125 C79.61351562 37.96804687 79.97703125 38.81109375 80.3515625 39.6796875 C82.74090744 45.46441735 84.18306649 50.45080053 82.125 56.625 C73.19449889 66.6061483 49.47710946 74.47435894 36.18359375 75.8515625 C27.5605697 76.23446908 19.09238927 75.10770092 11.07275391 71.83984375 C8.40145347 70.75747938 5.70523963 69.74453703 3.01171875 68.71875 C0.81879736 67.8580169 -1.37259824 66.993387 -3.5625 66.125 C-4.62307617 65.71459473 -5.68365234 65.30418945 -6.77636719 64.88134766 C-15.22203616 61.4127361 -15.22203616 61.4127361 -17.77734375 58.1171875 C-20.35589043 51.5431292 -17.37085243 46.02260217 -14.71289062 39.91992188 C-14.29201172 38.97697266 -13.87113281 38.03402344 -13.4375 37.0625 C-13.01275391 36.09248047 -12.58800781 35.12246094 -12.15039062 34.12304688 C-11.10789047 31.74520943 -10.05762761 29.37113802 -9 27 C-8.33613281 27.2165625 -7.67226563 27.433125 -6.98828125 27.65625 C-6.10527344 27.9346875 -5.22226562 28.213125 -4.3125 28.5 C-3.44238281 28.7784375 -2.57226562 29.056875 -1.67578125 29.34375 C0.99391677 29.99850805 3.26396684 30.11831495 6 30 C6 29.67 6 29.34 6 29 C4.63875 28.87625 4.63875 28.87625 3.25 28.75 C-2.76110722 27.89832362 -10.64426041 26.35573959 -15 22 C-15 21.01 -15 20.02 -15 19 C-13.49609375 17.59765625 -13.49609375 17.59765625 -11.4375 16.0625 C-6.09994732 11.64783967 -3.18455981 6.0606154 0 0 Z " fill="#3A3A3A" transform="translate(49,110)"/>
<path d="M0 0 C6.39026744 3.88913051 11.95940464 10.2014158 14.1640625 17.40234375 C16.51681922 28.42839857 15.75084731 37.21116314 9.66796875 46.80859375 C5.87347149 51.92354704 1.51009994 56.55611778 -2.95751953 61.08837891 C-4.32207048 62.50745548 -5.59924916 64.00899158 -6.87109375 65.51171875 C-9.375 67.5625 -9.375 67.5625 -12.3125 67.75390625 C-16.41920162 66.15627361 -18.54441798 63.79746327 -21.375 60.5 C-21.89900391 59.90799805 -22.42300781 59.31599609 -22.96289062 58.70605469 C-24.45306138 57.00711156 -25.91871777 55.29051605 -27.375 53.5625 C-28.0246875 52.79550781 -28.674375 52.02851562 -29.34375 51.23828125 C-30.80545727 49.39996063 -32.11349812 47.54247315 -33.375 45.5625 C-33.78492188 44.95148437 -34.19484375 44.34046875 -34.6171875 43.7109375 C-38.78937665 36.25854447 -38.48923924 26.83358358 -37.375 18.5625 C-34.76020656 9.75364667 -29.11045339 4.27103685 -21.375 -0.4375 C-14.95624154 -2.57708615 -6.27470613 -2.75535998 0 0 Z " fill="#383838" transform="translate(95.375,6.4375)"/>
<path d="M0 0 C2.375 -0.125 2.375 -0.125 5 0 C5.99 0.99 5.99 0.99 7 2 C6.76533586 6.84078587 5.3555292 9.30169139 2.1875 12.875 C-1.79962794 17.55331544 -5.64558512 22.30036632 -9.375 27.1875 C-9.88651611 27.84024902 -10.39803223 28.49299805 -10.92504883 29.16552734 C-14.30133488 33.61092402 -16.18455229 37.72629147 -18 43 C-20 46 -20 46 -22.23828125 46.73046875 C-26.3629926 48.62655247 -28.50014338 51.73267556 -31.1875 55.3125 C-31.72632813 56.02728516 -32.26515625 56.74207031 -32.8203125 57.47851562 C-36.70694472 62.93046231 -38.23999837 67.43048608 -38.73046875 74.1640625 C-39.38971139 81.1004416 -43.93811429 86.58415239 -48 92 C-44.71474205 97.67733639 -41.71865079 102.73313213 -36.5 106.8125 C-34.484375 108.4375 -34.484375 108.4375 -33 110 C-32.75 113.3125 -32.75 113.3125 -34 116 C-36.078125 117.16796875 -36.078125 117.16796875 -38 118 C-37.72212646 118.62455078 -37.44425293 119.24910156 -37.15795898 119.89257812 C-35.8982134 122.75354267 -34.66779854 125.6262566 -33.4375 128.5 C-32.99986328 129.48226562 -32.56222656 130.46453125 -32.11132812 131.4765625 C-29.56053504 137.50205798 -28.06651672 141.62435621 -30 148 C-33.73008803 152.48870551 -37.50134001 154.43844575 -42.78515625 156.515625 C-43.52326035 156.81692322 -44.26136444 157.11822144 -45.02183533 157.4286499 C-47.36410195 158.38102168 -49.71311152 159.31535669 -52.0625 160.25 C-53.6443282 160.89212668 -55.22571347 161.53534562 -56.80664062 162.1796875 C-65.51206609 165.70568218 -72.56748396 168.19058258 -82 168.25 C-83.18142578 168.2809375 -83.18142578 168.2809375 -84.38671875 168.3125 C-96.29312372 168.38919182 -107.04618137 164.10550584 -117.9375 159.6875 C-119.12923828 159.22666016 -120.32097656 158.76582031 -121.54882812 158.29101562 C-132.95569596 153.68599711 -132.95569596 153.68599711 -136 148 C-137.17687096 140.75295254 -134.37219185 135.07240298 -131.5 128.5 C-131.07074219 127.48679687 -130.64148438 126.47359375 -130.19921875 125.4296875 C-129.14541735 122.94739976 -128.0788759 120.47146749 -127 118 C-127.804375 117.5875 -128.60875 117.175 -129.4375 116.75 C-132 115 -132 115 -133.09765625 113.09765625 C-133 111 -133 111 -131.12109375 108.80859375 C-130.23550781 108.02613281 -129.34992188 107.24367188 -128.4375 106.4375 C-123.46578426 101.70420222 -119.08611915 96.66280913 -117 90 C-117.64396602 87.93941177 -117.64396602 87.93941177 -119 86 C-119.86339758 84.17099578 -120.71701471 82.3373531 -121.5625 80.5 C-121.99691406 79.5615625 -122.43132812 78.623125 -122.87890625 77.65625 C-125.30945889 71.89744933 -125.31790073 66.32296797 -125.62109375 60.1171875 C-125.68681428 56.90210802 -125.68681428 56.90210802 -128 55 C-128.41015625 52.5546875 -128.41015625 52.5546875 -128 50 C-126.05859375 48.4453125 -126.05859375 48.4453125 -123.4375 47.125 C-116.3134619 43.18962484 -111.04712004 38.70848821 -108 31 C-107.70761965 28.10919019 -107.80412262 25.2740706 -107.9375 22.375 C-108.30055117 13.38369005 -108.30055117 13.38369005 -106 10 C-105.99613281 11.30710937 -105.99613281 11.30710937 -105.9921875 12.640625 C-105.53313446 26.77945849 -100.18625707 35.49667809 -90.5859375 45.30859375 C-88 48 -88 48 -85.84765625 50.77734375 C-84.11472505 53.23086688 -84.11472505 53.23086688 -81.0625 54.125 C-76.77286849 53.949913 -75.89162792 52.10629025 -73 49 C-72.0216251 47.99402101 -71.04243395 46.98883535 -70.0625 45.984375 C-64.44284755 40.08880594 -59.35150851 34.54089414 -56 27 C-55 29 -55 29 -55.57421875 30.890625 C-58.75325077 37.62794198 -63.03010534 42.86449998 -67.98510742 48.35253906 C-70.97656489 51.2270115 -70.97656489 51.2270115 -72 55 C-68.29297673 58.10911629 -64.94668399 58.49951493 -60.28515625 58.375 C-56.6263949 57.77458788 -54.11046625 55.96784599 -51 54 C-50.34 54.33 -49.68 54.66 -49 55 C-50.03865218 58.34676814 -51.04612953 59.02532602 -54.1875 60.75 C-58.61434952 62.40549538 -62.59707581 62.94606812 -67.11328125 61.16796875 C-70.24555456 59.63905289 -73.09702604 57.93531597 -76 56 C-76.33 56.99 -76.66 57.98 -77 59 C-83.02536998 60.56659619 -83.02536998 60.56659619 -85.80078125 58.953125 C-87.26579304 57.70838944 -88.64065712 56.35934288 -90 55 C-90.763125 55.94875 -91.52625 56.8975 -92.3125 57.875 C-94.15534046 60.16609895 -95.46837417 61.31224944 -98 63 C-99.32 63 -100.64 63 -102 63 C-97.99564606 70.78624378 -91.84114086 73.89898944 -84 76.875 C-82.82824219 77.35453125 -82.82824219 77.35453125 -81.6328125 77.84375 C-77.09508689 79.6007818 -73.77230332 80.69771015 -69 79 C-66.06345977 76.91869552 -66.06345977 76.91869552 -63.375 74.25 C-62.45460938 73.38890625 -61.53421875 72.5278125 -60.5859375 71.640625 C-57.96077632 69.05783006 -57.96077632 69.05783006 -55.7890625 66.171875 C-55.19867188 65.45515625 -54.60828125 64.7384375 -54 64 C-53.34 64 -52.68 64 -52 64 C-50.61767557 62.37373596 -49.28062485 60.7074998 -48 59 C-46.515 59.495 -46.515 59.495 -45 60 C-51 67 -57 74 -63 81 C-63.66 80.67 -64.32 80.34 -65 80 C-67.13252737 80.60761953 -67.13252737 80.60761953 -69 82 C-69.80528889 84.05000871 -69.80528889 84.05000871 -70 86 C-72.00298201 85.0184944 -73.96744939 84.01899345 -75.89453125 82.89453125 C-79.45668103 80.8849274 -81.57158142 80 -85.75 80 C-89.24498001 81.07537847 -90.72897088 82.18392389 -93 85 C-93 81.48283697 -92.17554415 80.62878252 -90 78 C-90.51949219 77.70867187 -91.03898437 77.41734375 -91.57421875 77.1171875 C-96.40006332 74.28055428 -99.79060923 71.61349923 -103 67 C-103 66.01 -103 65.02 -103 64 C-103.928125 64.103125 -104.85625 64.20625 -105.8125 64.3125 C-111.37561673 64.36973371 -116.1511724 61.45510258 -121 59 C-120.74881204 67.71622207 -120.10302727 75.21405065 -116 83 C-115.51080078 83.95132813 -115.51080078 83.95132813 -115.01171875 84.921875 C-110.69878467 92.01077029 -102.57891218 96.18536776 -95 99 C-96.58984375 100.234375 -96.58984375 100.234375 -99 101 C-101.41063949 99.85637577 -103.37985389 98.73292266 -105.5625 97.25 C-106.4277832 96.68925781 -106.4277832 96.68925781 -107.31054688 96.1171875 C-108.88392403 95.09367572 -110.44263686 94.04771757 -112 93 C-113.485 92.01 -113.485 92.01 -115 91 C-115.27199219 91.7321875 -115.54398438 92.464375 -115.82421875 93.21875 C-118.5330887 99.62644238 -122.72898709 105.46107222 -128 110 C-128.66 110 -129.32 110 -130 110 C-129.47226211 111.97735042 -129.47226211 111.97735042 -128 114 C-124.86385658 115.54915668 -124.86385658 115.54915668 -121.1875 116.6875 C-119.35251953 117.31205078 -119.35251953 117.31205078 -117.48046875 117.94921875 C-114.64945217 118.80392521 -111.90950871 119.49568516 -109 120 C-108.34 118.68 -107.68 117.36 -107 116 C-107.875 120.875 -107.875 120.875 -109 122 C-113.98770821 121.57731286 -118.28723333 120.7672875 -123 119 C-130.37014333 131.38970276 -130.37014333 131.38970276 -133.0625 145 C-131.51971718 149.35609267 -129.29366787 151.33965753 -125.19433594 153.43212891 C-124.13504883 153.85929199 -123.07576172 154.28645508 -121.984375 154.7265625 C-120.81519531 155.2009375 -119.64601563 155.6753125 -118.44140625 156.1640625 C-117.22324219 156.64617187 -116.00507812 157.12828125 -114.75 157.625 C-112.94595703 158.35976563 -112.94595703 158.35976563 -111.10546875 159.109375 C-88.95908593 168.00682408 -73.3057392 166.22779181 -51.3984375 156.89453125 C-49.26154637 155.93875465 -47.12850268 154.97431461 -45 154 C-44.01418945 153.55833496 -43.02837891 153.11666992 -42.01269531 152.66162109 C-41.11389648 152.24090332 -40.21509766 151.82018555 -39.2890625 151.38671875 C-38.5048291 151.02151123 -37.7205957 150.65630371 -36.91259766 150.2800293 C-34.62486892 148.74893895 -33.94558161 147.56168877 -33 145 C-32.22586889 138.54084359 -34.41012571 133.81534576 -37 128.0625 C-37.3815625 127.18787109 -37.763125 126.31324219 -38.15625 125.41210938 C-39.09292091 123.26947468 -40.040945 121.13268579 -41 119 C-41.60255615 119.13712402 -42.2051123 119.27424805 -42.82592773 119.41552734 C-43.62458252 119.5955127 -44.4232373 119.77549805 -45.24609375 119.9609375 C-46.42836548 120.22849854 -46.42836548 120.22849854 -47.63452148 120.50146484 C-50.74468279 121.15694522 -53.84785475 121.59759848 -57 122 C-57.33 120.35 -57.66 118.7 -58 117 C-57.34 117.66 -56.68 118.32 -56 119 C-49.40377984 118.63038422 -42.98524577 115.57403054 -37 113 C-37.84489145 108.67560937 -39.84521529 107.08467838 -43 104 C-44.60637586 101.95659542 -46.14287017 99.87408682 -47.66796875 97.76953125 C-49.02248515 95.88439805 -49.02248515 95.88439805 -51 94 C-51.804375 94.804375 -52.60875 95.60875 -53.4375 96.4375 C-57 100 -57 100 -60.4375 100.375 C-62.2009375 100.684375 -62.2009375 100.684375 -64 101 C-64.66 101.99 -65.32 102.98 -66 104 C-65.55011719 104.66 -65.10023437 105.32 -64.63671875 106 C-62.70194425 109.54631698 -61.73678731 113.10144963 -60.8125 117 C-60.54663086 118.04800781 -60.54663086 118.04800781 -60.27539062 119.1171875 C-58.50172705 126.37619673 -58.50172705 126.37619673 -59 130 C-60.96161362 133.21195512 -63.99748614 133.79181209 -67.51171875 134.68554688 C-68.55779297 134.93401367 -68.55779297 134.93401367 -69.625 135.1875 C-70.29917969 135.36474609 -70.97335938 135.54199219 -71.66796875 135.72460938 C-80.58741196 137.91638906 -87.48530754 137.41042603 -95.875 133.6875 C-96.62007812 133.37876953 -97.36515625 133.07003906 -98.1328125 132.75195312 C-104.64004727 129.97233396 -104.64004727 129.97233396 -107 127 C-106.78505293 121.77172857 -105.18490813 117.45808326 -103.125 112.6875 C-102.61195312 111.47449219 -102.09890625 110.26148438 -101.5703125 109.01171875 C-100 106 -100 106 -97 104 C-98.05000423 106.66916962 -99.13634713 109.31070619 -100.2890625 111.9375 C-100.72992188 112.948125 -101.17078125 113.95875 -101.625 115 C-102.07101563 116.010625 -102.51703125 117.02125 -102.9765625 118.0625 C-103.97942083 120.94093307 -104.21066845 122.98411486 -104 126 C-102.10545176 126.96087136 -100.20930419 127.91858969 -98.3125 128.875 C-97.25675781 129.40867188 -96.20101562 129.94234375 -95.11328125 130.4921875 C-82.96136099 136.37755917 -74.08906307 133.15329774 -62 129 C-62.61415775 121.50727548 -63.62026889 113.63243032 -67.09765625 106.86328125 C-68 105 -68 105 -68 102 C-68.66 101.67 -69.32 101.34 -70 101 C-69.236875 100.71125 -68.47375 100.4225 -67.6875 100.125 C-64.84970692 99.03730987 -64.84970692 99.03730987 -62 97 C-60.68 97 -59.36 97 -58 97 C-55.1404295 93.48681339 -53.53050734 90.50931237 -53 86 C-52.34 86 -51.68 86 -51 86 C-50.67 86.99 -50.34 87.98 -50 89 C-45.16091213 82.65750619 -42.66042346 76.79233819 -41 69 C-41.66 69 -42.32 69 -43 69 C-43.25523438 69.72574219 -43.51046875 70.45148438 -43.7734375 71.19921875 C-45.06801074 74.1552984 -46.60455104 76.30564666 -48.625 78.8125 C-49.25664063 79.60269531 -49.88828125 80.39289063 -50.5390625 81.20703125 C-51.02117187 81.79871094 -51.50328125 82.39039062 -52 83 C-52.66 82.67 -53.32 82.34 -54 82 C-52.68876724 79.21175967 -51.22733442 76.82140209 -49.34765625 74.3828125 C-48.82333008 73.69993164 -48.29900391 73.01705078 -47.75878906 72.31347656 C-47.19901367 71.5912793 -46.63923828 70.86908203 -46.0625 70.125 C-45.20156738 69.00303223 -45.20156738 69.00303223 -44.32324219 67.85839844 C-41.49886107 64.18748105 -38.64632339 60.54405584 -35.73046875 56.9453125 C-35.22700928 56.31995605 -34.7235498 55.69459961 -34.20483398 55.05029297 C-33.25802397 53.87865729 -32.30346373 52.71322861 -31.34008789 51.55517578 C-28.81580151 48.42805341 -27.38839279 46.0333097 -27 42 C-25.35 41.67 -23.7 41.34 -22 41 C-21.67 39.68 -21.34 38.36 -21 37 C-21.66 36.67 -22.32 36.34 -23 36 C-22.67 35.01 -22.34 34.02 -22 33 C-20.02 33.495 -20.02 33.495 -18 34 C-17.35933594 33.16597656 -16.71867187 32.33195312 -16.05859375 31.47265625 C-15.64270996 30.93165283 -15.22682617 30.39064941 -14.79833984 29.83325195 C-13.88794435 28.64862717 -12.97811733 27.4635653 -12.06884766 26.27807617 C-8.82081673 22.04849743 -5.52432492 17.86085515 -2.1796875 13.70703125 C-0.81049182 12.07161096 -0.81049182 12.07161096 -1 10 C-0.175 9.54625 0.65 9.0925 1.5 8.625 C2.325 8.08875 3.15 7.5525 4 7 C4 5.68 4 4.36 4 3 C2.02 3.33 0.04 3.66 -2 4 C-1.34 2.68 -0.68 1.36 0 0 Z " fill="#F7F3F1" transform="translate(164,19)"/>
<path d="M0 0 C1.67542976 0.28604898 3.34385343 0.61781233 5 1 C4.64977712 5.08593357 3.4164748 6.64792769 0.53100586 9.41870117 C-2.65373461 12.70805917 -5.34255679 16.43360827 -8.125 20.0625 C-8.74503906 20.86494141 -9.36507812 21.66738281 -10.00390625 22.49414062 C-12.69316216 25.97860662 -15.36435616 29.47476456 -18 33 C-19.98 32.505 -19.98 32.505 -22 32 C-22.495 32.99 -22.495 32.99 -23 34 C-21.515 34.495 -21.515 34.495 -20 35 C-20.57344937 37.86724686 -20.8614515 38.8614515 -23 41 C-25.125 41.625 -25.125 41.625 -27 42 C-27.06316406 42.52722656 -27.12632812 43.05445313 -27.19140625 43.59765625 C-28.36592665 47.08717337 -30.63769441 49.62537684 -32.9375 52.4375 C-33.94982863 53.70003206 -34.96153485 54.9630634 -35.97265625 56.2265625 C-36.48328613 56.86110352 -36.99391602 57.49564453 -37.52001953 58.14941406 C-39.67457415 60.84349589 -41.77549708 63.57521704 -43.875 66.3125 C-44.67808594 67.35535156 -45.48117188 68.39820312 -46.30859375 69.47265625 C-48.36277104 72.15300237 -50.38892854 74.85332731 -52.41015625 77.55859375 C-53.28728271 78.72491333 -53.28728271 78.72491333 -54.18212891 79.91479492 C-55.33485468 81.44828895 -56.48186492 82.98609936 -57.62255859 84.52856445 C-58.1480127 85.22554443 -58.6734668 85.92252441 -59.21484375 86.640625 C-59.68011475 87.26485352 -60.14538574 87.88908203 -60.62475586 88.53222656 C-62 90 -62 90 -65 91 C-65.99 90.67 -66.98 90.34 -68 90 C-67.67979198 83.69190205 -65.74446828 80.7935751 -61.5 76.25 C-60.41033705 75.03485873 -59.32180875 73.81869909 -58.234375 72.6015625 C-57.69103516 72.00118164 -57.14769531 71.40080078 -56.58789062 70.78222656 C-54.22372086 68.12871498 -51.98924656 65.38483573 -49.75 62.625 C-49.02296875 61.73039062 -48.2959375 60.83578125 -47.546875 59.9140625 C-47.03640625 59.28242187 -46.5259375 58.65078125 -46 58 C-46.66 58 -47.32 58 -48 58 C-49.2065625 59.4540625 -49.2065625 59.4540625 -50.4375 60.9375 C-53 64 -53 64 -56 65 C-57.34683887 66.40043174 -57.34683887 66.40043174 -58.625 68.125 C-61.05148248 71.03436457 -63.59486373 73.56438071 -66.5 76 C-67.2115625 76.598125 -67.923125 77.19625 -68.65625 77.8125 C-72.41983741 79.71938429 -75.16373395 78.57058374 -79.05224609 77.36230469 C-98.0061941 71.01520689 -98.0061941 71.01520689 -102 64 C-102 63.01 -102 62.02 -102 61 C-100.948125 60.62875 -99.89625 60.2575 -98.8125 59.875 C-94.62191859 58.11188953 -92.65950458 55.62659715 -90 52 C-89.154375 52.845625 -88.30875 53.69125 -87.4375 54.5625 C-84.6208468 56.93653627 -84.15500232 57.00254102 -80.1875 56.9375 C-79.135625 56.628125 -78.08375 56.31875 -77 56 C-76.67 55.34 -76.34 54.68 -76 54 C-73.23658597 55.05659948 -70.70648905 56.16589749 -68.125 57.625 C-63.90976497 59.47970341 -60.42007593 59.82244768 -56 58.3203125 C-54.30801704 57.60394875 -52.65008688 56.80820582 -51 56 C-51 55.01 -51 54.02 -51 53 C-51.969375 53.66 -52.93875 54.32 -53.9375 55 C-58.24383117 57.44083548 -62.14140417 57.91538762 -67 57 C-69.34369906 55.88578241 -70.97252582 54.66356856 -73 53 C-71.36246553 49.14207981 -68.77508138 46.19782133 -66.0625 43.0625 C-63.02482938 39.54729164 -60.27270069 36.07285965 -58 32 C-57.48953125 32.37511719 -56.9790625 32.75023437 -56.453125 33.13671875 C-50.32082905 37.45324622 -43.99009544 40.32696858 -37 43 C-33.47926377 38.9130305 -33.47926377 38.9130305 -30.5 34.4375 C-29.07526597 32.1223072 -27.52078633 30.43315093 -25.5703125 28.55859375 C-19.2854962 22.32067906 -13.65593874 15.45753802 -8.140625 8.54296875 C-5.89270329 5.87253621 -3.49892417 3.4351761 -1 1 C-0.67 0.67 -0.34 0.34 0 0 Z " fill="#F9F6F5" transform="translate(164,21)"/>
<path d="M0 0 C3.3 0.66 6.6 1.32 10 2 C10 3.32 10 4.64 10 6 C9.319375 6.639375 8.63875 7.27875 7.9375 7.9375 C7.298125 8.618125 6.65875 9.29875 6 10 C6.14025199 12.70705512 6.14025199 12.70705512 7 15 C9.7002559 16.07092266 9.7002559 16.07092266 13 16 C15.40061224 14.21297995 17.08101612 11.93904114 18.875 9.5625 C19.37257813 8.93794922 19.87015625 8.31339844 20.3828125 7.66992188 C21.6070785 6.12781759 22.80606834 4.56570753 24 3 C27 4 27 4 28.5 6.25 C31.52916089 12.83722289 33.28293988 20.76482304 33 28 C25.50016414 32.25666359 15.6533656 35.82176118 7 34 C-6.81690141 29.18309859 -6.81690141 29.18309859 -11 25 C-10.80030038 15.81381736 -6.33283322 6.51377131 0 0 Z " fill="#FC701A" transform="translate(70,120)"/>
<path d="M0 0 C0.845625 0.845625 1.69125 1.69125 2.5625 2.5625 C5.3791532 4.93653627 5.84499768 5.00254102 9.8125 4.9375 C10.864375 4.628125 11.91625 4.31875 13 4 C13.33 3.34 13.66 2.68 14 2 C16.76341403 3.05659948 19.29351095 4.16589749 21.875 5.625 C25.65930827 7.29009564 27.89394762 7.49555805 32 7 C34.81545191 5.90390803 37.39355445 4.52133537 40 3 C40.99 2.4225 41.98 1.845 43 1.25 C43.66 0.8375 44.32 0.425 45 0 C44.40566226 3.57405801 43.01400148 5.50113335 40.625 8.1875 C39.71621094 9.22970703 39.71621094 9.22970703 38.7890625 10.29296875 C37 12 37 12 34 13 C32.65316113 14.40043174 32.65316113 14.40043174 31.375 16.125 C28.94851752 19.03436457 26.40513627 21.56438071 23.5 24 C22.7884375 24.598125 22.076875 25.19625 21.34375 25.8125 C17.58016259 27.71938429 14.83626605 26.57058374 10.94775391 25.36230469 C-8.0061941 19.01520689 -8.0061941 19.01520689 -12 12 C-12 11.01 -12 10.02 -12 9 C-10.948125 8.62875 -9.89625 8.2575 -8.8125 7.875 C-4.62191859 6.11188953 -2.65950458 3.62659715 0 0 Z " fill="#3E3E3E" transform="translate(74,73)"/>
<path d="M0 0 C4.68735174 2.70527158 9.22484059 6.35206883 11.92578125 11.12109375 C11.59578125 12.11109375 11.26578125 13.10109375 10.92578125 14.12109375 C10.56226563 13.57839844 10.19875 13.03570312 9.82421875 12.4765625 C6.69041153 8.01691376 4.32596618 4.75133826 -1.07421875 3.12109375 C-5.83179739 2.34643425 -10.03207847 2.09152885 -14.421875 4.3046875 C-20.94407085 9.38834295 -23.45251633 16.10861799 -24.44921875 24.14453125 C-24.76390337 31.795301 -23.64518209 39.21609821 -18.3203125 45.0390625 C-13.75779742 49.04912272 -11.09858448 50.24901253 -4.94921875 50.18359375 C-3.85351562 50.17457031 -2.7578125 50.16554687 -1.62890625 50.15625 C-0.78585938 50.14464844 0.0571875 50.13304687 0.92578125 50.12109375 C0.92578125 49.46109375 0.92578125 48.80109375 0.92578125 48.12109375 C-0.39421875 48.12109375 -1.71421875 48.12109375 -3.07421875 48.12109375 C-3.40421875 48.78109375 -3.73421875 49.44109375 -4.07421875 50.12109375 C-4.07421875 49.46109375 -4.07421875 48.80109375 -4.07421875 48.12109375 C-5.16734375 48.14171875 -6.26046875 48.16234375 -7.38671875 48.18359375 C-11.07421875 48.12109375 -11.07421875 48.12109375 -14.07421875 47.12109375 C-14.07421875 46.46109375 -14.07421875 45.80109375 -14.07421875 45.12109375 C-10.77421875 45.45109375 -7.47421875 45.78109375 -4.07421875 46.12109375 C-4.07421875 44.80109375 -4.07421875 43.48109375 -4.07421875 42.12109375 C-5.86859375 42.18296875 -5.86859375 42.18296875 -7.69921875 42.24609375 C-11.49751828 42.25961083 -14.52397493 41.54119128 -18.07421875 40.12109375 C-18.07421875 39.79109375 -18.07421875 39.46109375 -18.07421875 39.12109375 C-12.92250252 39.03071276 -8.15508671 39.27428242 -3.07421875 40.12109375 C-3.07421875 38.80109375 -3.07421875 37.48109375 -3.07421875 36.12109375 C-3.95464844 36.07210937 -4.83507812 36.023125 -5.7421875 35.97265625 C-6.90363281 35.89789063 -8.06507812 35.823125 -9.26171875 35.74609375 C-10.41027344 35.67648438 -11.55882813 35.606875 -12.7421875 35.53515625 C-15.87380992 35.14599801 -18.22707684 34.44010865 -21.07421875 33.12109375 C-21.07421875 32.79109375 -21.07421875 32.46109375 -21.07421875 32.12109375 C-15.13421875 32.45109375 -9.19421875 32.78109375 -3.07421875 33.12109375 C-3.07421875 31.80109375 -3.07421875 30.48109375 -3.07421875 29.12109375 C-3.78707031 29.13269531 -4.49992187 29.14429687 -5.234375 29.15625 C-10.63747241 29.20715401 -15.7525035 29.06717646 -21.07421875 28.12109375 C-21.07421875 27.46109375 -21.07421875 26.80109375 -21.07421875 26.12109375 C-15.13421875 26.45109375 -9.19421875 26.78109375 -3.07421875 27.12109375 C-3.07421875 25.47109375 -3.07421875 23.82109375 -3.07421875 22.12109375 C-9.01421875 22.12109375 -14.95421875 22.12109375 -21.07421875 22.12109375 C-20.74421875 21.46109375 -20.41421875 20.80109375 -20.07421875 20.12109375 C-17.35974896 19.8086792 -14.73512514 19.60772783 -12.01171875 19.49609375 C-10.87379883 19.43808594 -10.87379883 19.43808594 -9.71289062 19.37890625 C-7.8337468 19.28435813 -5.95401539 19.20162619 -4.07421875 19.12109375 C-4.07421875 18.13109375 -4.07421875 17.14109375 -4.07421875 16.12109375 C-9.02421875 16.12109375 -13.97421875 16.12109375 -19.07421875 16.12109375 C-18.74421875 15.46109375 -18.41421875 14.80109375 -18.07421875 14.12109375 C-13.53328703 12.70205259 -8.77990885 13.02882532 -4.07421875 13.12109375 C-4.07421875 11.80109375 -4.07421875 10.48109375 -4.07421875 9.12109375 C-7.37421875 9.12109375 -10.67421875 9.12109375 -14.07421875 9.12109375 C-13.74421875 8.46109375 -13.41421875 7.80109375 -13.07421875 7.12109375 C-10.10421875 7.12109375 -7.13421875 7.12109375 -4.07421875 7.12109375 C-3.74421875 6.13109375 -3.41421875 5.14109375 -3.07421875 4.12109375 C-3.07421875 5.11109375 -3.07421875 6.10109375 -3.07421875 7.12109375 C-0.43421875 7.45109375 2.20578125 7.78109375 4.92578125 8.12109375 C4.92578125 8.45109375 4.92578125 8.78109375 4.92578125 9.12109375 C2.61578125 9.12109375 0.30578125 9.12109375 -2.07421875 9.12109375 C-2.07421875 10.77109375 -2.07421875 12.42109375 -2.07421875 14.12109375 C1.55578125 14.12109375 5.18578125 14.12109375 8.92578125 14.12109375 C9.42078125 15.11109375 9.42078125 15.11109375 9.92578125 16.12109375 C6.29578125 16.12109375 2.66578125 16.12109375 -1.07421875 16.12109375 C-1.07421875 17.44109375 -1.07421875 18.76109375 -1.07421875 20.12109375 C2.88578125 20.12109375 6.84578125 20.12109375 10.92578125 20.12109375 C11.42078125 21.11109375 11.42078125 21.11109375 11.92578125 22.12109375 C7.63578125 22.12109375 3.34578125 22.12109375 -1.07421875 22.12109375 C-1.07421875 23.44109375 -1.07421875 24.76109375 -1.07421875 26.12109375 C3.21578125 26.12109375 7.50578125 26.12109375 11.92578125 26.12109375 C11.92578125 26.78109375 11.92578125 27.44109375 11.92578125 28.12109375 C5.49078125 28.61609375 5.49078125 28.61609375 -1.07421875 29.12109375 C-1.07421875 30.44109375 -1.07421875 31.76109375 -1.07421875 33.12109375 C5.36078125 32.62609375 5.36078125 32.62609375 11.92578125 32.12109375 C11.43078125 33.11109375 11.43078125 33.11109375 10.92578125 34.12109375 C6.94202464 35.29278687 3.05138901 35.20198802 -1.07421875 35.12109375 C-1.07421875 36.77109375 -1.07421875 38.42109375 -1.07421875 40.12109375 C2.55578125 39.46109375 6.18578125 38.80109375 9.92578125 38.12109375 C9.92578125 38.78109375 9.92578125 39.44109375 9.92578125 40.12109375 C8.30126706 40.45678672 6.67615208 40.78957335 5.05078125 41.12109375 C4.14585938 41.30671875 3.2409375 41.49234375 2.30859375 41.68359375 C-0.07421875 42.12109375 -0.07421875 42.12109375 -2.07421875 42.12109375 C-2.07421875 43.44109375 -2.07421875 44.76109375 -2.07421875 46.12109375 C-0.61541766 45.98001628 0.84281676 45.8330696 2.30078125 45.68359375 C3.11289063 45.60238281 3.925 45.52117188 4.76171875 45.4375 C6.9685093 45.23019261 6.9685093 45.23019261 8.92578125 44.12109375 C7.4181347 48.34250409 4.71285256 49.92459239 0.92578125 52.12109375 C-3.2195926 53.7257546 -7.8585673 53.83250215 -12.09375 52.47265625 C-19.44905283 49.18175594 -24.02148611 43.51192013 -27.07421875 36.12109375 C-29.24453362 26.90489749 -28.76127804 18.44751672 -24.07421875 10.12109375 C-18.57356147 2.11518662 -10.00513113 -4.23946234 0 0 Z " fill="#E2E2E2" transform="translate(93.07421875,7.87890625)"/>
<path d="M0 0 C5.6953125 1.8671875 5.6953125 1.8671875 8.4375 3.0625 C11.1042362 4.1803818 11.1042362 4.1803818 14.5625 4.1875 C18 5 18 5 20.125 8.3125 C20.42792969 8.94285156 20.73085938 9.57320312 21.04296875 10.22265625 C23.32144623 14.45411442 27.95273746 16.68727855 32 19 C31.67 19.66 31.34 20.32 31 21 C30.34 21 29.68 21 29 21 C26.62778953 25.59615778 26.52477139 29.94612651 27 35 C27.86653414 37.93080674 27.86653414 37.93080674 29 40 C21.28408077 39.85441662 15.91984459 36.86997647 10 32 C7.21077537 28.88173798 5.03605953 25.64866508 3 22 C2.64035156 21.36449219 2.28070313 20.72898437 1.91015625 20.07421875 C-1.01458994 13.7799493 -0.25704769 6.77844268 0 0 Z " fill="#343434" transform="translate(43,78)"/>
<path d="M0 0 C3.6875 1.5 3.6875 1.5 6 3 C6 3.66 6 4.32 6 5 C4.700625 4.979375 3.40125 4.95875 2.0625 4.9375 C-2.69382325 4.92995028 -7.28388953 5.40112883 -12 6 C-9.03 6.33 -6.06 6.66 -3 7 C-3 8.32 -3 9.64 -3 11 C-7.62 11.66 -12.24 12.32 -17 13 C-10.07 13.495 -10.07 13.495 -3 14 C-2.67 15.32 -2.34 16.64 -2 18 C-10.415 18.495 -10.415 18.495 -19 19 C-13.39 19.33 -7.78 19.66 -2 20 C-2 21.65 -2 23.3 -2 25 C-8.11090483 25.09945415 -13.97403427 25.0712828 -20 24 C-20 24.66 -20 25.32 -20 26 C-14.06 26.33 -8.12 26.66 -2 27 C-2 28.32 -2 29.64 -2 31 C-7.61 31 -13.22 31 -19 31 C-10.585 32.485 -10.585 32.485 -2 34 C-2 35.32 -2 36.64 -2 38 C-6.29 38 -10.58 38 -15 38 C-11.04 38.66 -7.08 39.32 -3 40 C-3 41.32 -3 42.64 -3 44 C-9.625 44.125 -9.625 44.125 -13 43 C-13 43.66 -13 44.32 -13 45 C-8.05 45.33 -3.1 45.66 2 46 C2 46.66 2 47.32 2 48 C-1.71429344 49.85714672 -5.94622471 49.44347927 -10 49 C-15.91053529 46.10049212 -20.1423678 41.38903608 -22.8125 35.375 C-25.57227284 27.04809919 -24.58634137 18.50954081 -21.34765625 10.48828125 C-16.29103743 1.15185752 -10.12423754 -0.85436604 0 0 Z " fill="#3A3A3A" transform="translate(92,10)"/>
<path d="M0 0 C2.375 -0.125 2.375 -0.125 5 0 C5.99 0.99 5.99 0.99 7 2 C6.76533586 6.84078587 5.3555292 9.30169139 2.1875 12.875 C-1.79962794 17.55331544 -5.64558512 22.30036632 -9.375 27.1875 C-9.88651611 27.84024902 -10.39803223 28.49299805 -10.92504883 29.16552734 C-14.30133488 33.61092402 -16.18455229 37.72629147 -18 43 C-20 46 -20 46 -22.23828125 46.73046875 C-26.3629926 48.62655247 -28.50014338 51.73267556 -31.1875 55.3125 C-31.72632813 56.02728516 -32.26515625 56.74207031 -32.8203125 57.47851562 C-36.70694472 62.93046231 -38.23999837 67.43048608 -38.73046875 74.1640625 C-39.38971139 81.1004416 -43.93811429 86.58415239 -48 92 C-44.71474205 97.67733639 -41.71865079 102.73313213 -36.5 106.8125 C-34.46875 108.4296875 -34.46875 108.4296875 -33 110 C-33 113.4375 -33 113.4375 -34 116 C-35.65 116.33 -37.3 116.66 -39 117 C-38.649375 116.4225 -38.29875 115.845 -37.9375 115.25 C-36.86263865 113.10780683 -36.86263865 113.10780683 -37.0625 111.0625 C-38.42276112 108.06992554 -40.65273648 106.29510211 -43 104 C-44.60637586 101.95659542 -46.14287017 99.87408682 -47.66796875 97.76953125 C-49.02248515 95.88439805 -49.02248515 95.88439805 -51 94 C-51.804375 94.804375 -52.60875 95.60875 -53.4375 96.4375 C-57 100 -57 100 -60.4375 100.375 C-62.2009375 100.684375 -62.2009375 100.684375 -64 101 C-64.66 101.99 -65.32 102.98 -66 104 C-65.55011719 104.66 -65.10023437 105.32 -64.63671875 106 C-62.70194425 109.54631698 -61.73678731 113.10144963 -60.8125 117 C-60.54663086 118.04800781 -60.54663086 118.04800781 -60.27539062 119.1171875 C-58.50172705 126.37619673 -58.50172705 126.37619673 -59 130 C-60.96161362 133.21195512 -63.99748614 133.79181209 -67.51171875 134.68554688 C-68.20910156 134.85119141 -68.90648437 135.01683594 -69.625 135.1875 C-70.29917969 135.36474609 -70.97335938 135.54199219 -71.66796875 135.72460938 C-80.58741196 137.91638906 -87.48530754 137.41042603 -95.875 133.6875 C-96.62007812 133.37876953 -97.36515625 133.07003906 -98.1328125 132.75195312 C-104.64004727 129.97233396 -104.64004727 129.97233396 -107 127 C-106.78505293 121.77172857 -105.18490813 117.45808326 -103.125 112.6875 C-102.61195312 111.47449219 -102.09890625 110.26148438 -101.5703125 109.01171875 C-100 106 -100 106 -97 104 C-98.05000423 106.66916962 -99.13634713 109.31070619 -100.2890625 111.9375 C-100.72992188 112.948125 -101.17078125 113.95875 -101.625 115 C-102.07101563 116.010625 -102.51703125 117.02125 -102.9765625 118.0625 C-103.97942083 120.94093307 -104.21066845 122.98411486 -104 126 C-102.10545176 126.96087136 -100.20930419 127.91858969 -98.3125 128.875 C-97.25675781 129.40867188 -96.20101562 129.94234375 -95.11328125 130.4921875 C-82.96136099 136.37755917 -74.08906307 133.15329774 -62 129 C-62.61415775 121.50727548 -63.62026889 113.63243032 -67.09765625 106.86328125 C-68 105 -68 105 -68 102 C-68.99 101.505 -68.99 101.505 -70 101 C-69.236875 100.71125 -68.47375 100.4225 -67.6875 100.125 C-64.84970692 99.03730987 -64.84970692 99.03730987 -62 97 C-60.68 97 -59.36 97 -58 97 C-55.1404295 93.48681339 -53.53050734 90.50931237 -53 86 C-52.34 86 -51.68 86 -51 86 C-50.67 86.99 -50.34 87.98 -50 89 C-45.16091213 82.65750619 -42.66042346 76.79233819 -41 69 C-41.66 69 -42.32 69 -43 69 C-43.25523438 69.72574219 -43.51046875 70.45148438 -43.7734375 71.19921875 C-45.06801074 74.1552984 -46.60455104 76.30564666 -48.625 78.8125 C-49.57246094 79.99779297 -49.57246094 79.99779297 -50.5390625 81.20703125 C-51.02117187 81.79871094 -51.50328125 82.39039062 -52 83 C-52.99 82.505 -52.99 82.505 -54 82 C-52.68876724 79.21175967 -51.22733442 76.82140209 -49.34765625 74.3828125 C-48.82333008 73.69993164 -48.29900391 73.01705078 -47.75878906 72.31347656 C-47.19901367 71.5912793 -46.63923828 70.86908203 -46.0625 70.125 C-45.48854492 69.37702148 -44.91458984 68.62904297 -44.32324219 67.85839844 C-41.49886107 64.18748105 -38.64632339 60.54405584 -35.73046875 56.9453125 C-35.22700928 56.31995605 -34.7235498 55.69459961 -34.20483398 55.05029297 C-33.25802397 53.87865729 -32.30346373 52.71322861 -31.34008789 51.55517578 C-28.81580151 48.42805341 -27.38839279 46.0333097 -27 42 C-25.35 41.67 -23.7 41.34 -22 41 C-21.67 39.68 -21.34 38.36 -21 37 C-21.66 36.67 -22.32 36.34 -23 36 C-22.67 35.01 -22.34 34.02 -22 33 C-20.02 33.495 -20.02 33.495 -18 34 C-17.35933594 33.16597656 -16.71867187 32.33195312 -16.05859375 31.47265625 C-15.64270996 30.93165283 -15.22682617 30.39064941 -14.79833984 29.83325195 C-13.88794435 28.64862717 -12.97811733 27.4635653 -12.06884766 26.27807617 C-8.82081673 22.04849743 -5.52432492 17.86085515 -2.1796875 13.70703125 C-0.81049182 12.07161096 -0.81049182 12.07161096 -1 10 C-0.175 9.54625 0.65 9.0925 1.5 8.625 C2.7375 7.820625 2.7375 7.820625 4 7 C4 5.68 4 4.36 4 3 C2.02 3.33 0.04 3.66 -2 4 C-1.34 2.68 -0.68 1.36 0 0 Z " fill="#F7F6F5" transform="translate(164,19)"/>
<path d="M0 0 C0.42539062 0.56976563 0.85078125 1.13953125 1.2890625 1.7265625 C2.96729025 3.95653636 4.66476479 6.16949306 6.375 8.375 C6.98085937 9.16003906 7.58671875 9.94507813 8.2109375 10.75390625 C9.74551392 12.68050329 11.34264409 14.49311209 13 16.3125 C15 19 15 19 15.1875 21.0625 C12.77772866 24.99423219 9.32887388 27.55704204 5 29 C-3.32993776 30.2573491 -9.99753981 26.06179449 -17 22 C-17.66 21.34 -18.32 20.68 -19 20 C-19 19.01 -19 18.02 -19 17 C-18.43152344 16.72027344 -17.86304688 16.44054687 -17.27734375 16.15234375 C-9.81429303 12.27753779 -3.91499053 7.59968751 0 0 Z " fill="#FC7019" transform="translate(58,52)"/>
<path d="M0 0 C3.52648783 1.69476842 6.8767124 3.64502684 10.25 5.625 C11.32765625 6.25664063 12.4053125 6.88828125 13.515625 7.5390625 C14.74539062 8.26222656 14.74539062 8.26222656 16 9 C14.56835889 12.65938172 13.01065704 16.23988068 11.375 19.8125 C10.92898437 20.78832031 10.48296875 21.76414063 10.0234375 22.76953125 C9.68570313 23.50558594 9.34796875 24.24164063 9 25 C8.34 25 7.68 25 7 25 C6.67 26.32 6.34 27.64 6 29 C-0.84840775 28.37741748 -10.03619501 26.96380499 -15 22 C-15 21.01 -15 20.02 -15 19 C-13.49609375 17.59765625 -13.49609375 17.59765625 -11.4375 16.0625 C-6.09994732 11.64783967 -3.18455981 6.0606154 0 0 Z " fill="#FB741F" transform="translate(49,110)"/>
<path d="M0 0 C2.28000971 2.18444044 4.2249147 4.47928382 6.125 7 C6.90230469 8.0209375 6.90230469 8.0209375 7.6953125 9.0625 C9 11 9 11 10 14 C10.66 14.309375 11.32 14.61875 12 14.9375 C14 16 14 16 14.75 18.125 C14.87375 19.053125 14.87375 19.053125 15 20 C11.42242916 22.29280783 7.96009187 23.88709909 3.9375 25.25 C2.40416016 25.78367188 2.40416016 25.78367188 0.83984375 26.328125 C-1.97905081 26.99504366 -3.32993667 26.99887261 -6 26 C-6 25.34 -6 24.68 -6 24 C-6.66 24 -7.32 24 -8 24 C-9.03513247 21.9237343 -10.05266211 19.83868521 -11.0625 17.75 C-11.63097656 16.58984375 -12.19945313 15.4296875 -12.78515625 14.234375 C-13.96485975 11.09355667 -14.30230734 10.00646952 -13 7 C-11.4221875 6.9071875 -11.4221875 6.9071875 -9.8125 6.8125 C-5.3483569 5.86112524 -3.9061324 4.41897929 -1 1 C-0.67 0.67 -0.34 0.34 0 0 Z " fill="#FA701E" transform="translate(113,112)"/>
<path d="M0 0 C0.10826289 2.4178712 0.18739789 4.83087556 0.25 7.25 C0.30027344 8.27287109 0.30027344 8.27287109 0.3515625 9.31640625 C0.41546576 12.60742435 0.34657496 14.54841449 -1.68725586 17.19848633 C-4.49411542 19.38489155 -5.87256902 19.50303685 -9.39453125 19.49609375 C-10.43287109 19.49673828 -11.47121094 19.49738281 -12.54101562 19.49804688 C-14.16040039 19.46807617 -14.16040039 19.46807617 -15.8125 19.4375 C-17.41448242 19.44813477 -17.41448242 19.44813477 -19.04882812 19.45898438 C-25.09330725 19.4103893 -29.70832797 19.01854095 -35 16 C-35.33 15.34 -35.66 14.68 -36 14 C-29.0050764 10.38216666 -21.91317422 7.16722293 -14.625 4.1875 C-13.65433594 3.78080078 -12.68367188 3.37410156 -11.68359375 2.95507812 C-10.74902344 2.57158203 -9.81445312 2.18808594 -8.8515625 1.79296875 C-8.01447754 1.4477417 -7.17739258 1.10251465 -6.31494141 0.74682617 C-4 0 -4 0 0 0 Z " fill="#383838" transform="translate(127,175)"/>
<path d="M0 0 C6.57758598 6.39487526 10.07859959 10.31727858 10.3125 19.5625 C10.25162423 25.77182819 9.22463097 31.61329554 6 37 C1.48330228 40.41723841 -1.54651443 40.27729588 -7 40 C-7 38.68 -7 37.36 -7 36 C-5.37548581 35.66430703 -3.75037083 35.3315204 -2.125 35 C-1.22007813 34.814375 -0.31515625 34.62875 0.6171875 34.4375 C3 34 3 34 5 34 C5 33.34 5 32.68 5 32 C3.39125 32.495 3.39125 32.495 1.75 33 C-2 34 -2 34 -6 34 C-6 32.35 -6 30.7 -6 29 C-2.04 28.34 1.92 27.68 6 27 C2.04 27 -1.92 27 -6 27 C-6 25.68 -6 24.36 -6 23 C0.435 22.505 0.435 22.505 7 22 C7 21.34 7 20.68 7 20 C2.71 20 -1.58 20 -6 20 C-6 18.68 -6 17.36 -6 16 C-0.06 15.505 -0.06 15.505 6 15 C2.04 14.67 -1.92 14.34 -6 14 C-6 12.68 -6 11.36 -6 10 C-2.7 9.67 0.6 9.34 4 9 C0.37 8.67 -3.26 8.34 -7 8 C-7 6.35 -7 4.7 -7 3 C-4.69 2.01 -2.38 1.02 0 0 Z " fill="#505050" transform="translate(98,14)"/>
<path d="M0 0 C1.32 0.66 2.64 1.32 4 2 C3.4812978 6.32957548 0.72249008 9.18495563 -1.9375 12.4375 C-2.94982863 13.70003206 -3.96153485 14.9630634 -4.97265625 16.2265625 C-5.48328613 16.86110352 -5.99391602 17.49564453 -6.52001953 18.14941406 C-8.67457415 20.84349589 -10.77549708 23.57521704 -12.875 26.3125 C-13.67808594 27.35535156 -14.48117188 28.39820313 -15.30859375 29.47265625 C-17.36277104 32.15300237 -19.38892854 34.85332731 -21.41015625 37.55859375 C-21.99490723 38.33614014 -22.5796582 39.11368652 -23.18212891 39.91479492 C-24.33485468 41.44828895 -25.48186492 42.98609936 -26.62255859 44.52856445 C-27.1480127 45.22554443 -27.6734668 45.92252441 -28.21484375 46.640625 C-28.91275024 47.57696777 -28.91275024 47.57696777 -29.62475586 48.53222656 C-31 50 -31 50 -34 51 C-34.99 50.67 -35.98 50.34 -37 50 C-36.66287086 43.65073454 -34.78538796 40.86530474 -30.625 36.4375 C-29.52085253 35.20935031 -28.41935148 33.978817 -27.3203125 32.74609375 C-26.7624707 32.12460449 -26.20462891 31.50311523 -25.62988281 30.86279297 C-23.12836014 28.00380286 -20.81456401 25.01080117 -18.5 22 C-6.5138191 6.5138191 -6.5138191 6.5138191 0 0 Z " fill="#3A3A3A" transform="translate(133,61)"/>
<path d="M0 0 C2.16100182 1.07799395 4.31880719 2.16167 6.47265625 3.25390625 C7.32730469 3.68574219 8.18195313 4.11757813 9.0625 4.5625 C10.34833984 5.21412109 10.34833984 5.21412109 11.66015625 5.87890625 C14.06506992 7.09098879 14.06506992 7.09098879 17 8 C16.73987695 11.54262816 16.2649453 12.75663005 13.6015625 15.203125 C12.61929688 15.87859375 11.63703125 16.5540625 10.625 17.25 C9.64789063 17.93578125 8.67078125 18.6215625 7.6640625 19.328125 C2.92938004 22.29945065 -1.53638787 22.71547302 -7 22 C-9.35972884 20.90167093 -10.96640459 19.66859111 -13 18 C-11.3417846 14.07713615 -8.68469989 11.06905702 -5.9375 7.875 C-2.63589453 4.16892732 -2.63589453 4.16892732 0 0 Z " fill="#FB6F1A" transform="translate(104,56)"/>
<path d="M0 0 C6.45038168 2.90076336 6.45038168 2.90076336 8 6 C7.360625 6.45375 6.72125 6.9075 6.0625 7.375 C3.34120639 10.83846459 3.43740473 13.54817583 3.2734375 17.85546875 C3.18320313 18.56316406 3.09296875 19.27085938 3 20 C-0.14911479 21.57455739 -2.52008816 21.34799118 -6 21 C-8.97672584 19.22719439 -11.42804007 17.14391985 -13 14 C-13.55512815 9.36786507 -13.6364242 6.01827873 -11.125 2 C-7.26941406 -1.62878677 -5.10830334 -1.08865481 0 0 Z " fill="#FC741D" transform="translate(84,99)"/>
<path d="M0 0 C0.33 0 0.66 0 1 0 C1.02578125 0.66386719 1.0515625 1.32773438 1.078125 2.01171875 C1.43179146 7.51766256 1.7865003 11.04186392 6 15 C8.40545638 16.20272819 9.94996953 16.10071472 12.625 16.0625 C13.44226563 16.05347656 14.25953125 16.04445313 15.1015625 16.03515625 C15.72804688 16.02355469 16.35453125 16.01195313 17 16 C16.94779297 14.98679687 16.94779297 14.98679687 16.89453125 13.953125 C16.86746094 13.06109375 16.84039062 12.1690625 16.8125 11.25 C16.77769531 10.36828125 16.74289063 9.4865625 16.70703125 8.578125 C17.05922641 5.47880755 17.75887037 4.15551344 20 2 C21.32 2 22.64 2 24 2 C23.67 2.99 23.34 3.98 23 5 C23 4.34 23 3.68 23 3 C20.792191 4.53827847 20.792191 4.53827847 19 7 C18.67451168 10.55663226 18.67451168 10.55663226 20 14 C22.95849927 16.33414647 22.95849927 16.33414647 26 18 C26 20 26 20 24 22.0625 C23.54496094 22.48917969 23.08992188 22.91585937 22.62109375 23.35546875 C20.88636735 25.06029038 20.88636735 25.06029038 19.09765625 27.36328125 C17.16345354 29.75040667 15.29762641 31.95866459 13 34 C9.625 34.25 9.625 34.25 7 33 C5 30 5 30 5.125 28.0625 C6.24078608 25.43243281 7.96354363 23.97076423 10 22 C10 21.34 10 20.68 10 20 C8.39950296 19.60963487 6.79437629 19.23821381 5.1875 18.875 C4.29417969 18.66617188 3.40085937 18.45734375 2.48046875 18.2421875 C-0.25246634 17.71119478 -0.25246634 17.71119478 -3 20 C-1.25 15.125 -1.25 15.125 1 14 C0.67386719 13.43667969 0.34773438 12.87335938 0.01171875 12.29296875 C-1.10658004 9.75844601 -1.23753867 8.06462698 -1.1875 5.3125 C-1.18105469 4.52488281 -1.17460938 3.73726563 -1.16796875 2.92578125 C-1 1 -1 1 0 0 Z " fill="#F3E8E2" transform="translate(70,103)"/>
<path d="M0 0 C0 0.99 0 1.98 0 3 C-5.11627907 8 -5.11627907 8 -10 8 C-5.99564606 15.78624378 0.15885914 18.89898944 8 21.875 C9.17175781 22.35453125 9.17175781 22.35453125 10.3671875 22.84375 C14.90491311 24.6007818 18.22769668 25.69771015 23 24 C25.93654023 21.91869552 25.93654023 21.91869552 28.625 19.25 C29.54539063 18.38890625 30.46578125 17.5278125 31.4140625 16.640625 C34.03922368 14.05783006 34.03922368 14.05783006 36.2109375 11.171875 C36.80132812 10.45515625 37.39171875 9.7384375 38 9 C38.66 9 39.32 9 40 9 C41.38232443 7.37373596 42.71937515 5.7074998 44 4 C44.99 4.33 45.98 4.66 47 5 C41 12 35 19 29 26 C28.34 25.67 27.68 25.34 27 25 C24.86747263 25.60761953 24.86747263 25.60761953 23 27 C22.19471111 29.05000871 22.19471111 29.05000871 22 31 C19.99701799 30.0184944 18.03255061 29.01899345 16.10546875 27.89453125 C12.54331897 25.8849274 10.42841858 25 6.25 25 C2.75501999 26.07537847 1.27102912 27.18392389 -1 30 C-1 26.48283697 -0.17554415 25.62878252 2 23 C1.22076172 22.56300781 1.22076172 22.56300781 0.42578125 22.1171875 C-4.40006332 19.28055428 -7.79060923 16.61349923 -11 12 C-11 11.01 -11 10.02 -11 9 C-11.969375 9.0825 -12.93875 9.165 -13.9375 9.25 C-18.81128713 9.28994907 -22.73516351 7.16626615 -27 5 C-26.67 4.34 -26.34 3.68 -26 3 C-21.39726027 3.76712329 -21.39726027 3.76712329 -19.1875 5.0625 C-14.5305687 7.0583277 -10.2332001 6.48862645 -5.6875 4.6875 C-3.42681951 3.26800295 -1.72637942 2.01410932 0 0 Z " fill="#F5F1EF" transform="translate(72,74)"/>
<path d="M0 0 C4.68735174 2.70527158 9.22484059 6.35206883 11.92578125 11.12109375 C11.59578125 12.11109375 11.26578125 13.10109375 10.92578125 14.12109375 C10.56226563 13.57839844 10.19875 13.03570312 9.82421875 12.4765625 C6.69041153 8.01691376 4.32596618 4.75133826 -1.07421875 3.12109375 C-5.83179739 2.34643425 -10.03207847 2.09152885 -14.421875 4.3046875 C-20.94407085 9.38834295 -23.45251633 16.10861799 -24.44921875 24.14453125 C-24.76464688 31.81337777 -23.57947149 39.03021767 -18.4609375 45.00390625 C-14.99142019 48.18878467 -11.70482277 49.99167814 -7.07421875 51.12109375 C-7.07421875 51.45109375 -7.07421875 51.78109375 -7.07421875 52.12109375 C-12.40732844 52.62900896 -14.93542456 51.46735288 -19.07421875 48.12109375 C-26.2137085 40.48350006 -28.48541626 33.27668817 -28.34765625 23.02734375 C-27.55443509 14.59653594 -23.37314154 7.66255115 -17.07421875 2.12109375 C-11.63919228 -1.04110347 -5.94043723 -2.51713442 0 0 Z " fill="#E3E3E3" transform="translate(93.07421875,7.87890625)"/>
<path d="M0 0 C5.29439938 0.62188183 9.75592121 2.32931065 14.625 4.375 C15.37523437 4.67921875 16.12546875 4.9834375 16.8984375 5.296875 C24.15884701 8.30917256 24.15884701 8.30917256 27 11 C27 11.66 27 12.32 27 13 C23.25014675 13.0871747 19.50055445 13.14045003 15.75 13.1875 C14.15478516 13.22520508 14.15478516 13.22520508 12.52734375 13.26367188 C11.50253906 13.27333984 10.47773437 13.28300781 9.421875 13.29296875 C8.47924805 13.3086792 7.53662109 13.32438965 6.56542969 13.34057617 C3.53362283 12.93808563 2.1797041 12.11656087 0 10 C-0.390625 7.51953125 -0.390625 7.51953125 -0.25 4.8125 C-0.21390625 3.91144531 -0.1778125 3.01039063 -0.140625 2.08203125 C-0.07101563 1.05142578 -0.07101563 1.05142578 0 0 Z " fill="#474747" transform="translate(34,175)"/>
<path d="M0 0 C0.495 0.99 0.495 0.99 1 2 C0.34 2.99 -0.32 3.98 -1 5 C-0.55011719 5.66 -0.10023437 6.32 0.36328125 7 C2.29805575 10.54631698 3.26321269 14.10144963 4.1875 18 C4.36474609 18.69867188 4.54199219 19.39734375 4.72460938 20.1171875 C6.49827295 27.37619673 6.49827295 27.37619673 6 31 C4.03838638 34.21195512 1.00251386 34.79181209 -2.51171875 35.68554688 C-3.20910156 35.85119141 -3.90648437 36.01683594 -4.625 36.1875 C-5.29917969 36.36474609 -5.97335938 36.54199219 -6.66796875 36.72460938 C-15.58741196 38.91638906 -22.48530754 38.41042603 -30.875 34.6875 C-31.99261719 34.2244043 -31.99261719 34.2244043 -33.1328125 33.75195312 C-39.64004727 30.97233396 -39.64004727 30.97233396 -42 28 C-41.78505293 22.77172857 -40.18490813 18.45808326 -38.125 13.6875 C-37.61195312 12.47449219 -37.09890625 11.26148438 -36.5703125 10.01171875 C-35 7 -35 7 -32 5 C-33.05000423 7.66916962 -34.13634713 10.31070619 -35.2890625 12.9375 C-35.72992188 13.948125 -36.17078125 14.95875 -36.625 16 C-37.07101563 17.010625 -37.51703125 18.02125 -37.9765625 19.0625 C-38.97942083 21.94093307 -39.21066845 23.98411486 -39 27 C-37.10545176 27.96087136 -35.20930419 28.91858969 -33.3125 29.875 C-32.25675781 30.40867188 -31.20101562 30.94234375 -30.11328125 31.4921875 C-17.96136099 37.37755917 -9.08906307 34.15329774 3 30 C2.38584225 22.50727548 1.37973111 14.63243032 -2.09765625 7.86328125 C-3 6 -3 6 -3 3 C-3.66 2.67 -4.32 2.34 -5 2 C-3.35 1.34 -1.7 0.68 0 0 Z " fill="#E8DEDA" transform="translate(99,118)"/>
<path d="M0 0 C6.57758598 6.39487526 10.07859959 10.31727858 10.3125 19.5625 C10.25162423 25.77182819 9.22463097 31.61329554 6 37 C1.48330228 40.41723841 -1.54651443 40.27729588 -7 40 C-7 38.68 -7 37.36 -7 36 C-5.39658445 35.66307215 -3.79223445 35.33058907 -2.1875 35 C-1.29417969 34.814375 -0.40085937 34.62875 0.51953125 34.4375 C3 34 3 34 6 34 C8.17506535 25.78524426 8.71786289 18.37458158 7 10 C3.99221479 8.99740493 1.46179353 8.69685358 -1.6875 8.4375 C-2.68136719 8.35371094 -3.67523438 8.26992188 -4.69921875 8.18359375 C-5.45847656 8.12300781 -6.21773438 8.06242187 -7 8 C-7 6.35 -7 4.7 -7 3 C-4.69 2.01 -2.38 1.02 0 0 Z " fill="#7A7A7A" transform="translate(98,14)"/>
<path d="M0 0 C0.66 0 1.32 0 2 0 C2.10826289 2.4178712 2.18739789 4.83087556 2.25 7.25 C2.30027344 8.27287109 2.30027344 8.27287109 2.3515625 9.31640625 C2.41546576 12.60742435 2.34657496 14.54841449 0.31274414 17.19848633 C-2.49411542 19.38489155 -3.87256902 19.50303685 -7.39453125 19.49609375 C-8.43287109 19.49673828 -9.47121094 19.49738281 -10.54101562 19.49804688 C-12.16040039 19.46807617 -12.16040039 19.46807617 -13.8125 19.4375 C-15.41448242 19.44813477 -15.41448242 19.44813477 -17.04882812 19.45898438 C-23.09330725 19.4103893 -27.70832797 19.01854095 -33 16 C-33.33 15.34 -33.66 14.68 -34 14 C-31.3341192 12.97466123 -30.23272185 12.90919068 -27.52734375 13.96484375 C-22.70429608 15.38024534 -18.18411283 15.25212603 -13.1875 15.1875 C-11.73827148 15.1865332 -11.73827148 15.1865332 -10.25976562 15.18554688 C-5.79356695 15.56835016 -5.79356695 15.56835016 -2 14 C-1.79068103 11.83703727 -1.63202931 9.6690529 -1.5 7.5 C-1.11111111 1.11111111 -1.11111111 1.11111111 0 0 Z " fill="#F8F8F8" transform="translate(125,175)"/>
<path d="M0 0 C1.32 0.99 2.64 1.98 4 3 C3.20335937 3.99 2.40671875 4.98 1.5859375 6 C-3.71082871 12.59425699 -8.99114941 19.18239781 -14 26 C-16.475 25.01 -16.475 25.01 -19 24 C-17.32191256 19.99015152 -14.56372917 16.93511979 -11.75 13.6875 C-11.25781982 13.11298096 -10.76563965 12.53846191 -10.25854492 11.9465332 C-8.84245774 10.2947038 -7.42148088 8.64718723 -6 7 C-4.77046227 5.56281737 -3.54119792 4.12540068 -2.3125 2.6875 C-1.549375 1.800625 -0.78625 0.91375 0 0 Z " fill="#4C4C4C" transform="translate(160,28)"/>
<path d="M0 0 C0.33 1.32 0.66 2.64 1 4 C6.445 3.01 6.445 3.01 12 2 C12 2.66 12 3.32 12 4 C10.37548581 4.33569297 8.75037083 4.6684796 7.125 5 C5.76761719 5.2784375 5.76761719 5.2784375 4.3828125 5.5625 C2 6 2 6 0 6 C0 7.32 0 8.64 0 10 C1.45880109 9.85892253 2.91703551 9.71197585 4.375 9.5625 C5.18710938 9.48128906 5.99921875 9.40007813 6.8359375 9.31640625 C9.04272805 9.10909886 9.04272805 9.10909886 11 8 C9.49235345 12.22141034 6.78707131 13.80349864 3 16 C-0.57258503 17.38293614 -4.20779357 17.07292705 -8 17 C-5.09907498 15.06604999 -4.10325263 14.69868059 -0.8125 14.375 C0.445625 14.25125 1.70375 14.1275 3 14 C3 13.34 3 12.68 3 12 C1.68 12 0.36 12 -1 12 C-1.33 12.66 -1.66 13.32 -2 14 C-2 13.34 -2 12.68 -2 12 C-3.093125 12.020625 -4.18625 12.04125 -5.3125 12.0625 C-9 12 -9 12 -12 11 C-12 10.34 -12 9.68 -12 9 C-8.7 9.33 -5.4 9.66 -2 10 C-1.855625 9.0925 -1.71125 8.185 -1.5625 7.25 C-1.13590527 4.78523044 -0.64925779 2.41152893 0 0 Z " fill="#D6D6D6" transform="translate(91,44)"/>
<path d="M0 0 C4.29 0 8.58 0 13 0 C14.60725635 3.21451269 14.05748185 6.43612536 14 10 C9.38 10 4.76 10 0 10 C0 8.68 0 7.36 0 6 C5.94 5.505 5.94 5.505 12 5 C8.04 4.67 4.08 4.34 0 4 C0 2.68 0 1.36 0 0 Z " fill="#464646" transform="translate(92,24)"/>
<path d="M0 0 C0.66 0 1.32 0 2 0 C2.185625 0.94875 2.37125 1.8975 2.5625 2.875 C3.73400805 6.38371699 3.73400805 6.38371699 7.625 7.375 C8.73875 7.58125 9.8525 7.7875 11 8 C8.125 12.875 8.125 12.875 7 14 C4.1875 14.375 4.1875 14.375 1 14 C-1.4375 11.9375 -1.4375 11.9375 -3 9 C-2.78947368 2.78947368 -2.78947368 2.78947368 0 0 Z " fill="#FC731B" transform="translate(91,106)"/>
<path d="M0 0 C7.74392649 5.74268706 11.14572191 11.93797387 12.7421875 21.4296875 C13.61699028 30.15120612 11.33087206 36.48889347 7 44 C6.34 43.34 5.68 42.68 5 42 C5.28875 41.34515625 5.5775 40.6903125 5.875 40.015625 C9.48798662 31.13369957 10.72185993 22.93277114 7.375 13.75 C5.2378108 8.99898228 2.33540865 4.98025432 -1 1 C-0.67 0.67 -0.34 0.34 0 0 Z " fill="#505050" transform="translate(98,9)"/>
<path d="M0 0 C0.928125 0.20625 1.85625 0.4125 2.8125 0.625 C1.33603678 3.79612299 -0.4252743 6.55962943 -2.5 9.375 C-3.07363281 10.17421875 -3.64726563 10.9734375 -4.23828125 11.796875 C-6.1875 13.625 -6.1875 13.625 -8.91796875 13.890625 C-9.66691406 13.80296875 -10.41585937 13.7153125 -11.1875 13.625 C-12.0625 11.5625 -12.0625 11.5625 -12.1875 8.625 C-9.32120064 4.14280032 -5.64138256 -0.66369207 0 0 Z " fill="#3E3E3E" transform="translate(90.1875,120.375)"/>
<path d="M0 0 C0.99 0.33 1.98 0.66 3 1 C3.144375 2.134375 3.28875 3.26875 3.4375 4.4375 C3.61171478 7.80777201 3.61171478 7.80777201 5 9 C6.46331621 9.14456186 7.93290676 9.2269601 9.40234375 9.28125 C10.73749023 9.33732422 10.73749023 9.33732422 12.09960938 9.39453125 C13.50436523 9.44673828 13.50436523 9.44673828 14.9375 9.5 C16.78010759 9.56876352 18.62257289 9.64148918 20.46484375 9.71875 C21.285896 9.74904297 22.10694824 9.77933594 22.95288086 9.81054688 C25 10 25 10 27 11 C27 11.66 27 12.32 27 13 C23.25014675 13.0871747 19.50055445 13.14045003 15.75 13.1875 C14.15478516 13.22520508 14.15478516 13.22520508 12.52734375 13.26367188 C11.50253906 13.27333984 10.47773437 13.28300781 9.421875 13.29296875 C8.47924805 13.3086792 7.53662109 13.32438965 6.56542969 13.34057617 C3.53362283 12.93808563 2.1797041 12.11656087 0 10 C-0.390625 7.51953125 -0.390625 7.51953125 -0.25 4.8125 C-0.21390625 3.91144531 -0.1778125 3.01039063 -0.140625 2.08203125 C-0.07101563 1.05142578 -0.07101563 1.05142578 0 0 Z " fill="#F9F9F9" transform="translate(34,175)"/>
<path d="M0 0 C2.8125 0.1875 2.8125 0.1875 5 1 C4.8125 3.3125 4.8125 3.3125 4 6 C1.625 7.875 1.625 7.875 -1 9 C-1.99 8.67 -2.98 8.34 -4 8 C-4.53109375 8.60328125 -5.0621875 9.2065625 -5.609375 9.828125 C-6.31578125 10.62734375 -7.0221875 11.4265625 -7.75 12.25 C-8.44609375 13.03890625 -9.1421875 13.8278125 -9.859375 14.640625 C-11.84586916 16.83011856 -13.89101308 18.92901285 -16 21 C-16 16.72201286 -13.50203784 14.69086599 -10.8125 11.625 C-10.08836914 10.77808594 -10.08836914 10.77808594 -9.34960938 9.9140625 C-6.37663831 6.46621418 -3.39201256 3.04249775 0 0 Z " fill="#F2F2F2" transform="translate(164,21)"/>
<path d="M0 0 C0.66 0 1.32 0 2 0 C1.14047772 8.42331838 -1.89696277 14.41976779 -7 21 C-7.33 21 -7.66 21 -8 21 C-8.95922616 17.8975029 -9.37107386 15.23976022 -9 12 C-6.73180603 8.28121686 -3.92498853 5.21020526 -1 2 C-0.67 1.34 -0.34 0.68 0 0 Z " fill="#575757" transform="translate(121,88)"/>
<path d="M0 0 C0.33 0.99 0.66 1.98 1 3 C3.64 3.33 6.28 3.66 9 4 C9 4.33 9 4.66 9 5 C6.69 5 4.38 5 2 5 C1.67 8.3 1.34 11.6 1 15 C0.67 14.01 0.34 13.02 0 12 C-4.95 12 -9.9 12 -15 12 C-14.67 11.34 -14.34 10.68 -14 10 C-9.45906828 8.58095884 -4.7056901 8.90773157 0 9 C0 7.68 0 6.36 0 5 C-3.3 5 -6.6 5 -10 5 C-9.67 4.34 -9.34 3.68 -9 3 C-6.03 3 -3.06 3 0 3 C0 2.01 0 1.02 0 0 Z " fill="#BDBDBD" transform="translate(89,12)"/>
<path d="M0 0 C0.64324219 0.76699219 1.28648438 1.53398437 1.94921875 2.32421875 C5.35771273 5.73271273 9.24286955 6.64423739 13.8125 7.8125 C14.99489258 8.13637695 14.99489258 8.13637695 16.20117188 8.46679688 C18.13008624 8.99286443 20.06454476 9.49853144 22 10 C22.66 8.68 23.32 7.36 24 6 C23.125 10.875 23.125 10.875 22 12 C17.01229179 11.57731286 12.71276667 10.7672875 8 9 C7.01 9.99 6.02 10.98 5 12 C4.9071875 11.1028125 4.9071875 11.1028125 4.8125 10.1875 C4.16333507 7.73256694 4.16333507 7.73256694 1.4375 6.5 C0.633125 6.005 -0.17125 5.51 -1 5 C-1 1 -1 1 0 0 Z " fill="#FBFAF9" transform="translate(33,129)"/>
<path d="M0 0 C0 0.99 0 1.98 0 3 C-5.11627907 8 -5.11627907 8 -10 8 C-8.38731308 10.71224618 -6.75098126 13.37352812 -5 16 C-5.99 16 -6.98 16 -8 16 C-10.35723489 13.46815512 -11 12.52809907 -11 9 C-11.969375 9.0825 -12.93875 9.165 -13.9375 9.25 C-18.81128713 9.28994907 -22.73516351 7.16626615 -27 5 C-26.67 4.34 -26.34 3.68 -26 3 C-21.39726027 3.76712329 -21.39726027 3.76712329 -19.1875 5.0625 C-14.5305687 7.0583277 -10.2332001 6.48862645 -5.6875 4.6875 C-3.42681951 3.26800295 -1.72637942 2.01410932 0 0 Z " fill="#EBE2DE" transform="translate(72,74)"/>
<path d="M0 0 C4.67159479 2.73481077 9.20739984 6.35667527 11.91015625 11.12890625 C11.58015625 12.11890625 11.25015625 13.10890625 10.91015625 14.12890625 C10.54664062 13.58621094 10.183125 13.04351562 9.80859375 12.484375 C6.67278355 8.02187587 4.32081318 4.73206386 -1.08984375 3.12890625 C-5.10398028 2.90761411 -9.07479287 2.95349141 -13.08984375 3.12890625 C-13.08984375 2.13890625 -13.08984375 1.14890625 -13.08984375 0.12890625 C-8.57987268 -1.37441744 -4.42593535 -1.84482913 0 0 Z " fill="#D9D9D9" transform="translate(93.08984375,7.87109375)"/>
<path d="M0 0 C-6.12539669 5.39034908 -13.21383766 5.27771119 -20.9375 5.125 C-21.81212891 5.11597656 -22.68675781 5.10695312 -23.58789062 5.09765625 C-25.72538064 5.0742957 -27.86272786 5.03843247 -30 5 C-30 4.34 -30 3.68 -30 3 C-28.72125 2.96261719 -27.4425 2.92523438 -26.125 2.88671875 C-24.4166396 2.82101258 -22.70830753 2.75456689 -21 2.6875 C-20.16082031 2.66494141 -19.32164063 2.64238281 -18.45703125 2.61914062 C-14.15957883 2.43591591 -10.57209848 2.00736654 -6.5625 0.39453125 C-3 -1 -3 -1 0 0 Z " fill="#EAEAEA" transform="translate(102,182)"/>
<path d="M0 0 C0.99 0.33 1.98 0.66 3 1 C1.06402271 3.27214699 -0.87371172 5.54275363 -2.8125 7.8125 C-3.35970703 8.45509766 -3.90691406 9.09769531 -4.47070312 9.75976562 C-5.26831055 10.69272461 -5.26831055 10.69272461 -6.08203125 11.64453125 C-6.56905518 12.21534424 -7.0560791 12.78615723 -7.55786133 13.37426758 C-8.98264145 14.98043159 -10.46631362 16.49814109 -12 18 C-12.66 17.34 -13.32 16.68 -14 16 C-13.34 16 -12.68 16 -12 16 C-11.71125 15.38125 -11.4225 14.7625 -11.125 14.125 C-10 12 -10 12 -8 10 C-8 9.01 -8 8.02 -8 7 C-7.34 6.34 -6.68 5.68 -6 5 C-5.34 5 -4.68 5 -4 5 C-2.61767557 3.37373596 -1.28062485 1.7074998 0 0 Z " fill="#E4E4E4" transform="translate(116,78)"/>
<path d="M0 0 C2.00720923 0.28674418 4.0085944 0.61866701 6 1 C6.6875 2.8125 6.6875 2.8125 7 5 C5.8125 6.8125 5.8125 6.8125 4 8 C1.02602384 7.72963853 0.14553974 7.14553974 -2 5 C-1.46428571 1.46428571 -1.46428571 1.46428571 0 0 Z " fill="#4D4D4D" transform="translate(137,54)"/>
<path d="M0 0 C0.33 0 0.66 0 1 0 C1.48695652 7.1826087 1.48695652 7.1826087 -0.75 10.9375 C-2.95750669 12.9610478 -4.06829636 13.6858889 -7 14 C-5.70886391 8.24857558 -3.6791863 4.62256741 0 0 Z " fill="#FB7123" transform="translate(109,104)"/>
<path d="M0 0 C0.66 0 1.32 0 2 0 C0.65758322 3.46791002 -0.83305412 6.80127255 -2.5 10.125 C-2.9228125 10.97320312 -3.345625 11.82140625 -3.78125 12.6953125 C-5 15 -5 15 -7 18 C-7.66 18 -8.32 18 -9 18 C-7.18807607 11.27680858 -4.54401843 5.35409414 0 0 Z " fill="#4B4B4B" transform="translate(66,119)"/>
<path d="M0 0 C-1.75 4.875 -1.75 4.875 -4 6 C-6.6723621 6.13415472 -9.32250488 6.04318541 -12 6 C-12 4.68 -12 3.36 -12 2 C-10.37548581 1.66430703 -8.75037083 1.3315204 -7.125 1 C-6.22007813 0.814375 -5.31515625 0.62875 -4.3828125 0.4375 C-2 0 -2 0 0 0 Z " fill="#4D4D4D" transform="translate(103,48)"/>
<path d="M0 0 C0 0.99 0 1.98 0 3 C-1.390625 4.3515625 -1.390625 4.3515625 -3.25 5.625 C-3.85328125 6.05039062 -4.4565625 6.47578125 -5.078125 6.9140625 C-9.27701749 9.28660744 -13.24713724 9.09140121 -18 9 C-15.09907498 7.06604999 -14.10325263 6.69868059 -10.8125 6.375 C-9.554375 6.25125 -8.29625 6.1275 -7 6 C-7 5.34 -7 4.68 -7 4 C-7.99 3.67 -8.98 3.34 -10 3 C-6.54153783 0.69435855 -5.0333286 0.91231894 -1 1 C-0.67 0.67 -0.34 0.34 0 0 Z " fill="#9A9A9A" transform="translate(101,52)"/>
<path d="M0 0 C1.67542976 0.28604898 3.34385343 0.61781233 5 1 C4.25 5.75 4.25 5.75 2 8 C-0.125 7.625 -0.125 7.625 -2 7 C-1.125 1.125 -1.125 1.125 0 0 Z " fill="#434343" transform="translate(164,21)"/>
<path d="M0 0 C-1.34260917 2.93050271 -2.87148538 5.20913591 -5 7.625 C-5.515625 8.21539062 -6.03125 8.80578125 -6.5625 9.4140625 C-7.67451212 10.64090196 -8.82916568 11.82916568 -10 13 C-10.66 13 -11.32 13 -12 13 C-10.97359462 7.73967244 -6.06649671 0 0 0 Z " fill="#ECECEC" transform="translate(80,9)"/>
<path d="M0 0 C0.33 0 0.66 0 1 0 C1.03738281 0.66386719 1.07476562 1.32773438 1.11328125 2.01171875 C1.4899103 7.07036379 1.81205295 10.84180819 5 15 C4.21625 15.0825 3.4325 15.165 2.625 15.25 C-0.14749104 15.72806339 -0.14749104 15.72806339 -1.3125 18.0625 C-1.539375 18.701875 -1.76625 19.34125 -2 20 C-2.33 19.34 -2.66 18.68 -3 18 C-1.68 16.68 -0.36 15.36 1 14 C0.67386719 13.43667969 0.34773438 12.87335938 0.01171875 12.29296875 C-1.10658004 9.75844601 -1.23753867 8.06462698 -1.1875 5.3125 C-1.18105469 4.52488281 -1.17460938 3.73726563 -1.16796875 2.92578125 C-1 1 -1 1 0 0 Z " fill="#EBDCD4" transform="translate(70,103)"/>
<path d="M0 0 C0.33 0.99 0.66 1.98 1 3 C-1.64 5.97 -4.28 8.94 -7 12 C-9 9 -9 9 -9 6 C-7.03125 4.39453125 -7.03125 4.39453125 -4.5 2.8125 C-3.6646875 2.28269531 -2.829375 1.75289063 -1.96875 1.20703125 C-1.3190625 0.80871094 -0.669375 0.41039063 0 0 Z " fill="#5D5D5D" transform="translate(118,73)"/>
<path d="M0 0 C0.66 1.32 1.32 2.64 2 4 C0.71937515 5.7074998 -0.61767557 7.37373596 -2 9 C-2.66 9 -3.32 9 -4 9 C-4.33 10.32 -4.66 11.64 -5 13 C-5.29359745 9.9465865 -5.4451258 7.04256578 -5 4 C-2.5 1.4375 -2.5 1.4375 0 0 Z " fill="#F7C3A4" transform="translate(99,97)"/>
<path d="M0 0 C0.33 0.99 0.66 1.98 1 3 C3.64 3.33 6.28 3.66 9 4 C9 4.33 9 4.66 9 5 C2.73 5 -3.54 5 -10 5 C-9.67 4.34 -9.34 3.68 -9 3 C-6.03 3 -3.06 3 0 3 C0 2.01 0 1.02 0 0 Z " fill="#DCDCDC" transform="translate(89,12)"/>
<path d="M0 0 C0.33 0.99 0.66 1.98 1 3 C0.01 4.485 0.01 4.485 -1 6 C-5.96916636 5.48594831 -10.29026351 4.76615118 -15 3 C-15 2.34 -15 1.68 -15 1 C-10.13103697 1.59619955 -5.67209049 2.56976822 -1 4 C-0.67 2.68 -0.34 1.36 0 0 Z " fill="#E8DED8" transform="translate(56,135)"/>
<path d="M0 0 C0.99 0.33 1.98 0.66 3 1 C-1.455 6.94 -1.455 6.94 -6 13 C-6.66 12.67 -7.32 12.34 -8 12 C-6.59023295 8.96147295 -4.91129772 6.4060405 -2.875 3.75 C-2.06675781 2.69039063 -2.06675781 2.69039063 -1.2421875 1.609375 C-0.83226563 1.07828125 -0.42234375 0.5471875 0 0 Z " fill="#EBEBEB" transform="translate(118,89)"/>
<path d="M0 0 C0.66 0.33 1.32 0.66 2 1 C0.96134782 4.34676814 -0.04612953 5.02532602 -3.1875 6.75 C-6.82422724 8.16343391 -10.10320937 8.23857902 -14 8 C-14 7.67 -14 7.34 -14 7 C-13.030625 6.87625 -12.06125 6.7525 -11.0625 6.625 C-10.051875 6.41875 -9.04125 6.2125 -8 6 C-7.67 5.34 -7.34 4.68 -7 4 C-4.75343171 2.40656936 -2.4712584 1.25730691 0 0 Z " fill="#EAE2DE" transform="translate(113,73)"/>
<path d="M0 0 C0 4.27100573 -2.31559898 5.79181342 -5 9 C-5.85279338 11.21735439 -5.85279338 11.21735439 -6 13 C-7.32 13 -8.64 13 -10 13 C-8.56501627 9.79111679 -6.78256013 7.42193016 -4.4375 4.8125 C-3.81746094 4.11769531 -3.19742188 3.42289063 -2.55859375 2.70703125 C-1.72141231 1.79011824 -0.8779528 0.8779528 0 0 Z " fill="#F1F1F1" transform="translate(147,41)"/>
<path d="M0 0 C-0.33 0.99 -0.66 1.98 -1 3 C-1 2.34 -1 1.68 -1 1 C-3.207809 2.53827847 -3.207809 2.53827847 -5 5 C-4.85146936 9.23312311 -4.35931785 11.46102322 -2 15 C-5 15 -5 15 -7 14 C-7.08153933 12.41753293 -7.13943557 10.83383727 -7.1875 9.25 C-7.22230469 8.36828125 -7.25710937 7.4865625 -7.29296875 6.578125 C-6.70945454 1.44319999 -5.12041535 0 0 0 Z " fill="#FBE3D7" transform="translate(94,105)"/>
<path d="M0 0 C0.66 0.33 1.32 0.66 2 1 C1.6875 2.875 1.6875 2.875 1 5 C-2.6441774 7.4294516 -4.71241272 7.16179575 -9 7 C-8.67 6.01 -8.34 5.02 -8 4 C-7.34 4.33 -6.68 4.66 -6 5 C-2.33039824 3.19693207 -2.33039824 3.19693207 0 0 Z " fill="#FEEDE5" transform="translate(109,112)"/>
<path d="M0 0 C3.63 2.31 7.26 4.62 11 7 C7 8 7 8 3.8125 6.875 C2.884375 6.25625 1.95625 5.6375 1 5 C0.67 3.35 0.34 1.7 0 0 Z " fill="#F1EAE6" transform="translate(57,143)"/>
<path d="M0 0 C3.96 0 7.92 0 12 0 C12.33 0.66 12.66 1.32 13 2 C9.37 2 5.74 2 2 2 C1.67 2.99 1.34 3.98 1 5 C0.67 3.35 0.34 1.7 0 0 Z " fill="#D8D8D8" transform="translate(90,22)"/>
<path d="M0 0 C3 1 3 1 4.38671875 3.50390625 C4.81597656 4.51324219 5.24523437 5.52257812 5.6875 6.5625 C6.12449219 7.57441406 6.56148438 8.58632812 7.01171875 9.62890625 C7.33785156 10.41136719 7.66398437 11.19382813 8 12 C7.01 12.33 6.02 12.66 5 13 C4.54625 11.783125 4.0925 10.56625 3.625 9.3125 C2.45547059 6.1919073 1.25437562 3.08769384 0 0 Z " fill="#555555" transform="translate(97,122)"/>
<path d="M0 0 C0.33 0 0.66 0 1 0 C1 1.65 1 3.3 1 5 C3.31 5 5.62 5 8 5 C8 6.65 8 8.3 8 10 C5.33333333 8.66666667 2.66666667 7.33333333 0 6 C0 4.02 0 2.04 0 0 Z " fill="#E3D1C9" transform="translate(95,106)"/>
<path d="M0 0 C0.66 0.33 1.32 0.66 2 1 C2 2.98 2 4.96 2 7 C1.01 6.67 0.02 6.34 -1 6 C-1.99 6.66 -2.98 7.32 -4 8 C-4 4.09161134 -2.49432124 2.88405893 0 0 Z " fill="#DCDCDC" transform="translate(161,23)"/>
<path d="M0 0 C4.38889325 0.66498383 7.9811485 2.18757677 12 4 C10.265625 5.14453125 10.265625 5.14453125 8 6 C5.859375 5.13671875 5.859375 5.13671875 3.75 3.6875 C3.04359375 3.21699219 2.3371875 2.74648437 1.609375 2.26171875 C1.07828125 1.84535156 0.5471875 1.42898437 0 1 C0 0.67 0 0.34 0 0 Z " fill="#F6EDE9" transform="translate(57,114)"/>
<path d="M0 0 C1.65 0.33 3.3 0.66 5 1 C5 1.66 5 2.32 5 3 C3.04072937 4.7143618 1.04119788 6.38405168 -1 8 C-1 4.48283697 -0.17554415 3.62878252 2 1 C1.34 0.67 0.68 0.34 0 0 Z " fill="#F5EEEB" transform="translate(91,120)"/>
<path d="M0 0 C3.37462715 0.54723683 5.08235 1.0549 8 3 C5.39417629 3.93065133 4.35801776 4.14917407 1.75 3.0625 C1.1725 2.711875 0.595 2.36125 0 2 C0 1.34 0 0.68 0 0 Z " fill="#EEEEEE" transform="translate(41,174)"/>
<path d="M0 0 C0.598125 0.268125 1.19625 0.53625 1.8125 0.8125 C2.1425 1.8025 2.4725 2.7925 2.8125 3.8125 C-1.6425 2.8225 -1.6425 2.8225 -6.1875 1.8125 C-2.1875 -0.1875 -2.1875 -0.1875 0 0 Z " fill="#FFF7F4" transform="translate(76.1875,118.1875)"/>
</svg>
